<svg enable-background="new 0 0 512 512" viewBox="0 0 512 512" xmlns="http://www.w3.org/2000/svg"><g fill="#1c9c81"><path d="m449 54h-180.271c-5.522 0-10 4.478-10 10s4.478 10 10 10h180.271c5.522 0 10-4.478 10-10s-4.478-10-10-10z"/><path d="m456.069 104.93c-1.859-1.86-4.439-2.93-7.069-2.93s-5.21 1.069-7.07 2.93-2.93 4.44-2.93 7.07 1.069 5.21 2.93 7.069c1.86 1.86 4.44 2.931 7.07 2.931s5.21-1.07 7.069-2.931c1.861-1.859 2.931-4.439 2.931-7.069s-1.07-5.21-2.931-7.07z"/><path d="m406.286 102h-137.557c-5.522 0-10 4.478-10 10s4.478 10 10 10h137.557c5.522 0 10-4.478 10-10s-4.478-10-10-10z"/><path d="m449 150h-138.187c-5.522 0-10 4.478-10 10s4.478 10 10 10h138.187c5.522 0 10-4.478 10-10s-4.478-10-10-10z"/><path d="m269.323 150h-.721c-5.522 0-10 4.478-10 10s4.477 10 10 10h.721c5.522 0 10-4.478 10-10s-4.478-10-10-10z"/><path d="m484.063 364.077-29.09-9.64c7.613-9.579 12.177-21.685 12.177-34.843v-12.029c0-30.941-25.172-56.113-56.113-56.113-30.94 0-56.112 25.172-56.112 56.113v12.029c0 13.159 4.564 25.264 12.177 34.843l-28.885 9.572-27.838-9.225c12.213-13.194 19.697-30.827 19.697-50.181v-16.682c0-1.41-.049-2.809-.127-4.2-.005-.054-.007-.108-.012-.162-2.267-38.751-34.499-69.586-73.809-69.586-40.775 0-73.948 33.173-73.948 73.948v16.682c0 19.354 7.483 36.987 19.697 50.181l-27.965 9.267-29.012-9.614c7.613-9.579 12.177-21.685 12.177-34.843v-12.029c0-30.941-25.172-56.113-56.113-56.113-30.94 0-56.112 25.172-56.112 56.113v12.029c0 13.159 4.564 25.264 12.177 34.843l-29.09 9.64c-16.712 5.537-27.939 21.085-27.939 38.688v59.173c0 5.522 4.478 10 10 10h109.983v30.062c0 5.522 4.478 10 10 10h252.287c5.522 0 10-4.478 10-10v-30.063h109.73c5.522 0 10-4.478 10-10v-59.173c0-17.602-11.227-33.15-27.937-38.687zm-109.139-56.513c.001-19.913 16.201-36.113 36.114-36.113 19.912 0 36.112 16.2 36.112 36.113v12.029c0 12.479-6.364 23.498-16.015 29.988-.611.302-1.19.666-1.729 1.087-5.386 3.196-11.665 5.038-18.368 5.038h-.001c-6.703 0-12.981-1.842-18.367-5.037-.54-.422-1.121-.787-1.733-1.089-9.65-6.49-16.013-17.508-16.013-29.987zm-118.797-73.591c26.538 0 48.645 19.266 53.11 44.542-5.943 2.283-12.309 3.477-18.723 3.477-16.255 0-31.291-7.399-41.253-20.301-1.894-2.452-4.816-3.889-7.915-3.889s-6.021 1.437-7.915 3.889c-7.778 10.073-18.655 16.771-30.784 19.233 3.443-26.451 26.105-46.951 53.48-46.951zm-53.948 67.33c14.73-2.03 28.33-8.518 39.168-18.673 13.254 12.419 30.637 19.362 49.168 19.362 6.625 0 13.218-.923 19.561-2.706v5.316c0 18.768-9.639 35.321-24.221 44.988-.725.345-1.406.777-2.031 1.286-8.102 4.867-17.577 7.674-27.697 7.674s-19.594-2.806-27.696-7.673c-.626-.51-1.308-.943-2.033-1.288-14.581-9.668-24.219-26.22-24.219-44.987zm84.431 70.646-30.483 30.483-30.483-30.483c9.302 4.227 19.617 6.602 30.483 6.602s21.181-2.375 30.483-6.602zm-221.761-64.385c.001-19.913 16.201-36.113 36.114-36.113 19.912 0 36.112 16.2 36.112 36.113v12.029c0 12.477-6.361 23.495-16.01 29.985-.614.303-1.196.669-1.737 1.092-5.385 3.195-11.663 5.037-18.366 5.037s-12.981-1.842-18.367-5.037c-.54-.422-1.121-.787-1.733-1.089-9.65-6.49-16.013-17.508-16.013-29.987zm55.134 112.378v31.996h-99.983v-49.173c0-8.965 5.718-16.883 14.228-19.703l41.05-13.604c7.702 3.984 16.431 6.249 25.684 6.249h.001c9.253 0 17.982-2.265 25.684-6.249l17.909 5.935c-15.069 9.477-24.573 26.141-24.573 44.549zm226.097 72.058v-35c0-5.522-4.478-10-10-10s-10 4.478-10 10v35h-140.159v-35c0-5.522-4.478-10-10-10s-10 4.478-10 10v35h-25.938v-72.059c0-14.104 8.994-26.56 22.382-30.995l39.05-12.941 47.64 47.639c1.953 1.952 4.512 2.929 7.071 2.929s5.118-.977 7.071-2.929l47.64-47.639 39.05 12.941c13.388 4.436 22.382 16.892 22.382 30.995v72.059zm145.921-40.062h-99.73v-31.996c0-18.443-9.54-35.137-24.658-44.604l17.741-5.879c7.702 3.984 16.432 6.249 25.685 6.249s17.982-2.265 25.684-6.249l41.05 13.604c8.51 2.82 14.228 10.738 14.228 19.703z"/><path d="m462 0h-412c-27.57 0-50 22.43-50 50v133.973c0 27.57 22.43 50 50 50h102.168c5.522 0 10-4.478 10-10s-4.478-10-10-10h-102.168c-16.542 0-30-13.458-30-30v-133.973c0-16.542 13.458-30 30-30h412c16.542 0 30 13.458 30 30v133.973c0 16.542-13.458 30-30 30h-74.667c-2.1 0-4.146.661-5.85 1.89l-22.314 16.095v-7.984c0-5.522-4.478-10-10-10h-22.169c-5.522 0-10 4.478-10 10s4.478 10 10 10h12.169v17.526c0 3.754 2.103 7.192 5.444 8.902 1.438.735 2.999 1.098 4.555 1.098 2.063 0 4.115-.638 5.851-1.89l35.545-25.638h71.436c27.57 0 50-22.43 50-50v-133.972c0-27.57-22.43-50-50-50z"/><path d="m188.986 47.986h-111.959c-15.447 0-28.013 12.567-28.013 28.014v81.973c0 15.447 12.566 28.014 28.014 28.014h111.959c15.447-.001 28.013-12.567 28.013-28.014v-81.973c0-15.447-12.566-28.014-28.014-28.014zm8.015 109.987c0 4.419-3.595 8.014-8.014 8.014h-111.96c-4.419-.001-8.013-3.595-8.013-8.014v-81.973c0-4.419 3.595-8.014 8.014-8.014h111.959c4.419 0 8.014 3.595 8.014 8.014z"/><path d="m158.725 98.503-23.64-13.647c-6.679-3.857-14.657-3.858-21.342-.001-6.683 3.858-10.672 10.768-10.672 18.483v27.296c0 7.716 3.989 14.626 10.672 18.484 3.341 1.929 7.006 2.893 10.671 2.893s7.33-.965 10.671-2.894l23.64-13.647c6.682-3.858 10.671-10.768 10.671-18.483s-3.99-14.626-10.671-18.484zm-10 19.646-23.64 13.647c-.165.096-.669.39-1.342 0-.672-.388-.672-.972-.672-1.163v-27.296c0-.191 0-.775.671-1.162.253-.146.482-.195.679-.195.325 0 .561.136.664.195l23.639 13.647c.167.096.672.388.672 1.163s-.505 1.069-.671 1.164z"/><path d="m263.069 447.93c-1.859-1.861-4.439-2.93-7.069-2.93s-5.21 1.069-7.07 2.93-2.93 4.44-2.93 7.07 1.069 5.21 2.93 7.069c1.86 1.86 4.44 2.931 7.07 2.931s5.21-1.07 7.069-2.931c1.861-1.859 2.931-4.439 2.931-7.069s-1.07-5.21-2.931-7.07z"/></g></svg>