<svg enable-background="new 0 0 465.293 465.293" viewBox="0 0 465.293 465.293" xmlns="http://www.w3.org/2000/svg"><g fill="#1c9c81"><path d="m303.484 115.791c19.2 40 67.2 57.6 108 38.4s57.6-67.2 38.4-108c-19.2-40-67.2-57.6-108-38.4-34.4 16-52.8 54.4-44 92l-50.4 36-50.4-36c10.4-43.2-16-86.4-59.2-96.8-43.2-10.4-86.4 16.8-96.8 60-10.4 42.4 16.8 86.4 60 96 36.8 8.8 75.2-9.6 91.2-44l48 34.4v44c-15.2-20-38.4-32-64-32h-16c-4.8 0-8 3.2-8 8 0 44 36 80 80 80h8v16c-43.2 2.4-80.8 24-96 56-.8 0-2.4 0-3.2 0h-21.6c0-4.8-3.2-8-8-8h-64c-4.8 0-8 3.2-8 8h-32v16h32v80h-32v16h32c0 4.8 3.2 8 8 8h64c4.8 0 8-3.2 8-8v-3.2l60 24.8c32.8 13.6 68.8 13.6 101.6.8l123.2-46.4c7.2-2.4 13.6-8 16-15.2 3.2-7.2 3.2-15.2.8-23.2-3.2-7.2-8.8-13.6-16-16-7.2-3.2-15.2-3.2-22.4 0l-24.8 10.4c1.6-4.8 1.6-8 1.6-12 0-46.4-45.6-84.8-104-88v-16h8c44 0 80-36 80-80 0-4.8-3.2-8-8-8h-16c-25.6 0-48.8 12-64 32v-44zm72-98.4c35.2 0 64 28.8 64 64s-28.8 64-64 64-64-28.8-64-64 28.8-64 64-64zm-256 128c-35.2 0-64-28.8-64-64s28.8-64 64-64 64 28.8 64 64-28.8 64-64 64zm112 88c-32 0-59.2-24-63.2-56h7.2c32 0 59.2 24 63.2 56zm-128 192h-48v-96h48zm285.6-56c3.2-1.6 6.4-1.6 9.6 0s5.6 4 7.2 7.2 1.6 7.2 0 10.4-4 5.6-7.2 7.2l-123.2 47.2c-28.8 11.2-61.6 10.4-90.4-.8l-65.6-27.2v-76h20c26.4 0 52.8 6.4 76.8 18.4 8 4 16.8 5.6 25.6 5.6h61.6c6.4 0 12 5.6 12 12 0 5.6-4 10.4-9.6 12-.8 0-2.4 0-3.2 0h-95.2v16h95.2.8.8c6.4 0 12.8-1.6 18.4-4zm-45.6-16c0 6.4-1.6 12.8-3.2 19.2l-8.8 4c0-.8 0-1.6 0-3.2 0-15.2-12.8-28-28-28h-62.4c-6.4 0-12.8-1.6-18.4-4-20-9.6-40.8-16-62.4-18.4 16-24.8 49.6-41.6 86.4-41.6 53.6 0 96.8 32 96.8 72zm-24-176h7.2c-4 32-31.2 56-63.2 56h-7.2c4-32 31.2-56 63.2-56z"/><path d="m398.684 91.791c-1.6-5.6-6.4-11.2-11.2-13.6l-15.2-8c-3.2-1.6-4.8-5.6-3.2-8.8 0-2.4 2.4-4 5.6-4h2.4c3.2 0 6.4 3.2 6.4 7.2v.8h16v-.8c0-9.6-6.4-18.4-16-21.6v-9.6h-16v8.8c-12 4-18.4 16.8-15.2 28.8 1.6 5.6 6.4 11.2 11.2 13.6l15.2 8c3.2 1.6 4.8 5.6 3.2 8.8-.8 2.4-3.2 4-6.4 4h-2.4c-4 0-7.2-3.2-7.2-7.2v-.8h-16v.8c1.6 10.4 8 19.2 17.6 22.4v8.8h16v-8.8c12-4 18.4-16.8 15.2-28.8z"/><path d="m407.484 73.391h16v16h-16z"/><path d="m327.484 73.391h16v16h-16z"/><path d="m143.484 65.391v-.8c0-10.4-6.4-19.2-16-22.4v-8.8h-16v8.8c-12 4-18.4 16.8-15.2 28.8 1.6 5.6 6.4 11.2 11.2 13.6l15.2 8c3.2 1.6 4.8 5.6 3.2 8.8-.8 2.4-3.2 4-6.4 4h-2.4c-4 0-7.2-3.2-7.2-7.2v-.8h-16v.8c0 9.6 6.4 18.4 16 21.6v9.6h16v-8.8c12-4 18.4-16.8 15.2-28.8-1.6-5.6-6.4-11.2-11.2-13.6l-15.2-8c-3.2-1.6-4.8-5.6-3.2-8.8 1.6-2.4 4-4 7.2-4h2.4c3.2 0 6.4 3.2 6.4 7.2v.8z"/><path d="m151.484 73.391h16v16h-16z"/><path d="m71.484 73.391h16v16h-16z"/><path d="m71.484 393.391h16v16h-16z"/></g></svg>