<?xml version="1.0" encoding="iso-8859-1"?>
<!-- Generator: Adobe Illustrator 19.0.0, SVG Export Plug-In . SVG Version: 6.00 Build 0)  -->
<svg version="1.1" id="Capa_1" xmlns="http://www.w3.org/2000/svg" xmlns:xlink="http://www.w3.org/1999/xlink" x="0px" y="0px"
	 viewBox="0 0 512 512" style="enable-background:new 0 0 512 512;" xml:space="preserve">
<g>
	<g>
		<path fill="#1C9C81" d="M449,54H268.729c-5.522,0-10,4.478-10,10s4.478,10,10,10H449c5.522,0,10-4.478,10-10C459,58.478,454.522,54,449,54z"/>
	</g>
</g>
<g>
	<g>
		<path fill="#1C9C81" d="M456.069,104.93C454.21,103.07,451.63,102,449,102s-5.21,1.069-7.07,2.93c-1.86,1.861-2.93,4.44-2.93,7.07
			s1.069,5.21,2.93,7.069c1.86,1.86,4.44,2.931,7.07,2.931s5.21-1.07,7.069-2.931C457.93,117.21,459,114.63,459,112
			S457.93,106.79,456.069,104.93z"/>
	</g>
</g>
<g>
	<g>
		<path fill="#1C9C81" d="M406.286,102H268.729c-5.522,0-10,4.478-10,10c0,5.522,4.478,10,10,10h137.557c5.522,0,10-4.478,10-10
			C416.286,106.478,411.808,102,406.286,102z"/>
	</g>
</g>
<g>
	<g>
		<path fill="#1C9C81" d="M449,150H310.813c-5.522,0-10,4.478-10,10c0,5.522,4.478,10,10,10H449c5.522,0,10-4.478,10-10
			C459,154.478,454.522,150,449,150z"/>
	</g>
</g>
<g>
	<g>
		<path fill="#1C9C81" d="M269.323,150h-0.721c-5.522,0-10,4.478-10,10c0,5.522,4.477,10,10,10h0.721c5.522,0,10-4.478,10-10
			C279.323,154.478,274.845,150,269.323,150z"/>
	</g>
</g>
<g>
	<g>
		<path fill="#1C9C81" d="M484.063,364.077l-29.09-9.64c7.613-9.579,12.177-21.685,12.177-34.843v-12.029c0-30.941-25.172-56.113-56.113-56.113
			c-30.94,0-56.112,25.172-56.112,56.113v12.029c0,13.159,4.564,25.264,12.177,34.843l-28.885,9.572l-27.838-9.225
			c12.213-13.194,19.697-30.827,19.697-50.181v-16.682c0-1.41-0.049-2.809-0.127-4.2c-0.005-0.054-0.007-0.108-0.012-0.162
			c-2.267-38.751-34.499-69.586-73.809-69.586c-40.775,0-73.948,33.173-73.948,73.948v16.682c0,19.354,7.483,36.987,19.697,50.181
			l-27.965,9.267l-29.012-9.614c7.613-9.579,12.177-21.685,12.177-34.843v-12.029c0-30.941-25.172-56.113-56.113-56.113
			c-30.94,0-56.112,25.172-56.112,56.113v12.029c0,13.159,4.564,25.264,12.177,34.843l-29.09,9.64
			C11.227,369.614,0,385.162,0,402.765v59.173c0,5.522,4.478,10,10,10h109.983V502c0,5.522,4.478,10,10,10H382.27
			c5.522,0,10-4.478,10-10v-30.063H502c5.522,0,10-4.478,10-10v-59.173C512,385.162,500.773,369.614,484.063,364.077z
			 M374.924,307.564L374.924,307.564c0.001-19.913,16.201-36.113,36.114-36.113c19.912,0,36.112,16.2,36.112,36.113v12.029
			c0,12.479-6.364,23.498-16.015,29.988c-0.611,0.302-1.19,0.666-1.729,1.087c-5.386,3.196-11.665,5.038-18.368,5.038h-0.001
			c-6.703,0-12.981-1.842-18.367-5.037c-0.54-0.422-1.121-0.787-1.733-1.089c-9.65-6.49-16.013-17.508-16.013-29.987V307.564z
			 M256.127,233.973c26.538,0,48.645,19.266,53.11,44.542c-5.943,2.283-12.309,3.477-18.723,3.477
			c-16.255,0-31.291-7.399-41.253-20.301c-1.894-2.452-4.816-3.889-7.915-3.889s-6.021,1.437-7.915,3.889
			c-7.778,10.073-18.655,16.771-30.784,19.233C206.09,254.473,228.752,233.973,256.127,233.973z M202.179,301.303
			c14.73-2.03,28.33-8.518,39.168-18.673c13.254,12.419,30.637,19.362,49.168,19.362c6.625,0,13.218-0.923,19.561-2.706v5.316
			c0,18.768-9.639,35.321-24.221,44.988c-0.725,0.345-1.406,0.777-2.031,1.286c-8.102,4.867-17.577,7.674-27.697,7.674
			s-19.594-2.806-27.696-7.673c-0.626-0.51-1.308-0.943-2.033-1.288c-14.581-9.668-24.219-26.22-24.219-44.987V301.303z
			 M286.61,371.949l-30.483,30.483l-30.483-30.483c9.302,4.227,19.617,6.602,30.483,6.602S277.308,376.176,286.61,371.949z
			 M64.849,307.564L64.849,307.564c0.001-19.913,16.201-36.113,36.114-36.113c19.912,0,36.112,16.2,36.112,36.113v12.029
			c0,12.477-6.361,23.495-16.01,29.985c-0.614,0.303-1.196,0.669-1.737,1.092c-5.385,3.195-11.663,5.037-18.366,5.037
			s-12.981-1.842-18.367-5.037c-0.54-0.422-1.121-0.787-1.733-1.089c-9.65-6.49-16.013-17.508-16.013-29.987V307.564z
			 M119.983,419.942v31.996H20v-49.173c0-8.965,5.718-16.883,14.228-19.703l41.05-13.604c7.702,3.984,16.431,6.249,25.684,6.249
			h0.001c9.253,0,17.982-2.265,25.684-6.249l17.909,5.935C129.487,384.87,119.983,401.534,119.983,419.942z M346.08,492v-35
			c0-5.522-4.478-10-10-10c-5.522,0-10,4.478-10,10v35H185.921v-35c0-5.522-4.478-10-10-10c-5.522,0-10,4.478-10,10v35h-25.938
			v-72.059c0-14.104,8.994-26.56,22.382-30.995l39.05-12.941l47.64,47.639c1.953,1.952,4.512,2.929,7.071,2.929
			c2.559,0,5.118-0.977,7.071-2.929l47.64-47.639l39.05,12.941c13.388,4.436,22.382,16.892,22.382,30.995V492H346.08z
			 M492.001,451.938L492.001,451.938h-99.73v-31.996c0-18.443-9.54-35.137-24.658-44.604l17.741-5.879
			c7.702,3.984,16.432,6.249,25.685,6.249s17.982-2.265,25.684-6.249l41.05,13.604c8.51,2.82,14.228,10.738,14.228,19.703V451.938z"
			/>
	</g>
</g>
<g>
	<g>
		<path fill="#1C9C81" d="M462,0H50C22.43,0,0,22.43,0,50v133.973c0,27.57,22.43,50,50,50h102.168c5.522,0,10-4.478,10-10c0-5.522-4.478-10-10-10
			H50c-16.542,0-30-13.458-30-30V50c0-16.542,13.458-30,30-30h412c16.542,0,30,13.458,30,30v133.973c0,16.542-13.458,30-30,30
			h-74.667c-2.1,0-4.146,0.661-5.85,1.89l-22.314,16.095v-7.984c0-5.522-4.478-10-10-10H327c-5.522,0-10,4.478-10,10
			c0,5.522,4.478,10,10,10h12.169V251.5c0,3.754,2.103,7.192,5.444,8.902c1.438,0.735,2.999,1.098,4.555,1.098
			c2.063,0,4.115-0.638,5.851-1.89l35.545-25.638H462c27.57,0,50-22.43,50-50V50C512,22.43,489.57,0,462,0z"/>
	</g>
</g>
<g>
	<g>
		<path fill="#1C9C81" d="M188.986,47.986H77.027C61.58,47.986,49.014,60.553,49.014,76v81.973c0,15.447,12.566,28.014,28.014,28.014h111.959
			C204.434,185.986,217,173.42,217,157.973V76C217,60.553,204.434,47.986,188.986,47.986z M197.001,157.973
			c0,4.419-3.595,8.014-8.014,8.014H77.027c-4.419-0.001-8.013-3.595-8.013-8.014V76c0-4.419,3.595-8.014,8.014-8.014h111.959
			c4.419,0,8.014,3.595,8.014,8.014V157.973z"/>
	</g>
</g>
<g>
	<g>
		<path fill="#1C9C81" d="M158.725,98.503l-23.64-13.647c-6.679-3.857-14.657-3.858-21.342-0.001c-6.683,3.858-10.672,10.768-10.672,18.483v27.296
			c0,7.716,3.989,14.626,10.672,18.484c3.341,1.929,7.006,2.893,10.671,2.893c3.665,0,7.33-0.965,10.671-2.894l23.64-13.647
			c6.682-3.858,10.671-10.768,10.671-18.483S165.406,102.361,158.725,98.503z M148.725,118.149l-23.64,13.647
			c-0.165,0.096-0.669,0.39-1.342,0c-0.672-0.388-0.672-0.972-0.672-1.163v-27.296c0-0.191,0-0.775,0.671-1.162
			c0.253-0.146,0.482-0.195,0.679-0.195c0.325,0,0.561,0.136,0.664,0.195l23.639,13.647c0.167,0.096,0.672,0.388,0.672,1.163
			C149.396,117.76,148.891,118.054,148.725,118.149z"/>
	</g>
</g>
<g>
	<g>
		<path fill="#1C9C81" d="M263.069,447.93C261.21,446.069,258.63,445,256,445s-5.21,1.069-7.07,2.93c-1.86,1.861-2.93,4.44-2.93,7.07
			s1.069,5.21,2.93,7.069c1.86,1.86,4.44,2.931,7.07,2.931s5.21-1.07,7.069-2.931C264.93,460.21,266,457.63,266,455
			S264.93,449.79,263.069,447.93z"/>
	</g>
</g>
<g>
</g>
<g>
</g>
<g>
</g>
<g>
</g>
<g>
</g>
<g>
</g>
<g>
</g>
<g>
</g>
<g>
</g>
<g>
</g>
<g>
</g>
<g>
</g>
<g>
</g>
<g>
</g>
<g>
</g>
</svg>
