<svg height="30" viewBox="0 0 146 30" width="146" xmlns="http://www.w3.org/2000/svg"><g fill="#fff" fill-rule="evenodd"><text font-family="Avenir-Medium, Avenir" font-size="20" font-weight="400" letter-spacing=".2125" transform="translate(34 1)"><tspan x="0" y="20">CryptoWise</tspan></text><path d="m23.5880209 27.0176142c-.259487-.8873163-.5838458-1.7429427-.8108969-2.6302589-.1621794-.5387277-.3567947-1.1091453-.3567947-1.6795629.0324359-.3485885-.0324358-.9190061-.0648717-1.2675946-.0648718-.4119683-.0973077-.8239365-.1946153-1.2042149-.1297435-.7288669-1.4596145-3.771094-1.1028198-3.771094.3567946 0 .6162816.3168986.7135893.475348.2270511.3168986.2919229-.0950696.2919229-.2218291 0-.3168987-.0648718-.6654872-.1621794-.9823858-.0973076-.4119683-.259487-.7922467-.4541023-1.1725251-.2270511-.475348-.3892305-.950696-.7135893-1.3943541-.0973076-.0950696-.1946153-.1901392-.2270512-.3485885 0-.0633797 0-.0950696.0324359-.1584493.0973077-.1584494.5838458-.1901392-.1621794-.9190061s-3.5679465-3.42250553-3.8923053-3.80278392c-.1297435-.12675946-.2270511-.28520879-.259487-.47534799-.0973077-.31689866-.0973077-.63379731-.2270512-.95069597s-.2919229-.63379732-.4541023-.95069597c-.1621793-.28520879-.4541022-.57041759-.5838458-.88731624-.1297435-.31689866-.1297435-.69717705.0324359-.98238584.2270512-.34858853.7135893-.76055678.5838458-1.17252504-.0973076-.31689865-.5514099.12675947-.7460252-.12675946-.1946152-.28520879.2919229-1.61618315-.2919229-1.36266423-.259487.12675947-1.0703839.79224665-1.2649992.91900611-.1621794.15844933-.0648717-.53872772-.259487-.41196825-.5514099.28520879-.5838458 1.04576557-.5838458 1.55280342 0 .12675946-.1297435.22182906-.259487.22182906-.5189741-.0950696-1.0055122-.15844933-1.5244863-.15844933-.2919229 0-1.20012747.0950696-1.2974351.03168987-.19461527-.0950696-.22705115-.44365812-.32435878-.63379732-.06487176-.12675946-.12974351-.28520879-.2919229-.34858852-.16217939-.0950696-.22705114.19013919-.38923053.03168986-.22705115-.22182906-.55140992-.85562637-.81089695-1.04576557-.2919229-.22182906-.16217939.22182906-.22705114.60210745-.06487176.22182906-.09730763.41196826-.2919229.60210745-.09730763.0950696-.2919229 0-.42166641.06337973-.16217939.0950696-.12974351.2852088-.12974351.44365812.03243588.44365812.32435878.82393651.5838458 1.17252504.2919229.38027839.19461526.53872771-.06487176.9190061-.51897404.79224665-.8757687 1.45773383-.97307633 2.4084298-.09730763.98238584.74602519 2.3133602 1.00551221 3.26405614.25948702.9190061.16217939 4.1830623.68115343 4.8802394.22705115.3485885.48653817.1267594 1.00551221 1.172525.51897405 1.0140757 1.29743511 2.5668791 1.68666566 3.2323663.2919229.5070379.6487175.8239365.9730763 1.172525.3243588.3168987.0973077.6654872-.0973076.7288669-.7135893.1901392-1.36230688.950696-.9730763 1.6795629.1621793-.2535189.2270511-.5704176.3892305-.8239365.259487-.3802784.4216664-.4119682.7135893-.2852088.1946153.0950696.1946153.2852088.3243588.475348.0648717.0950696.1946152.5387277.2919229.5387277.0973076 0 .1621794-.2852088.1946152-.4436581.0324359-.1267595 0-.3168986.0973077-.4119682.259487-.2218291.5838458-.4119683.8757687-.6021075.4216664-.2218291.2919229.4436581.259487.6021075-.0973076.4119682-.1297435 1.172525.0973076 1.172525.2270512 0 .0324359-.8556264.5189741-1.1091453.4216664-.2218291.5514099-.5704176.9082045-.8556264.2594871-.221829.6487176-.2535189.9082046 0 .1946153.1901392 3.1138443 2.3450501 3.4706389 2.6302589.7460252.6021074 1.2325634 2.2499804 1.7191016 2.2499804.1621794 0 .0648717-.1584493.0973076-.2852088.0324359-.1267594.1946153-.1584493.2919229-.0950696.6162817.5387278 1.8812809 1.7112528 2.3678191 1.7112528.4865381 0-.1297435-.6337973-.2270512-.9823858zm-14.88806786-19.55264721c-.55140992 0-1.00551221-.76055678-1.00551221-1.29928449l2.01102442.31689865c0 .57041759-.45410229.98238584-1.00551221.98238584zm2.10833206 1.96477168c-.2270511 0-.6811534-1.42604396-.6811534-1.61618315 0-.1901392.4541023-.66548719.6811534-.66548719s.6811534.47534799.6811534.66548719c-.0324358.15844932-.4541023 1.61618315-.6811534 1.61618315zm2.2056397-1.96477168c-.5514099 0-1.0055122-.44365812-1.0055122-.98238584l2.0110244-.31689865c0 .53872771-.4541023 1.29928449-1.0055122 1.29928449z" fill-rule="nonzero"/></g></svg>